<?xml version="1.0" standalone="no"?>
<!DOCTYPE svg PUBLIC "-//W3C//DTD SVG 20010904//EN"
 "http://www.w3.org/TR/2001/REC-SVG-20010904/DTD/svg10.dtd">
<svg version="1.0" xmlns="http://www.w3.org/2000/svg"
 width="250.000000pt" height="250.000000pt" viewBox="0 0 250.000000 250.000000"
 preserveAspectRatio="xMidYMid meet">
<metadata>
Created by potrace 1.11, written by Peter Selinger 2001-2013
</metadata>
<g transform="translate(0.000000,250.000000) scale(0.100000,-0.100000)"
fill="#000000" stroke="none">
<path d="M1034 2425 c-494 -91 -893 -499 -974 -998 -28 -175 -4 -430 56 -599
148 -411 517 -718 947 -788 80 -13 304 -13 384 0 320 52 630 249 806 513 144
216 207 423 207 681 0 156 -10 227 -51 361 -131 425 -501 754 -936 830 -106
18 -338 18 -439 0z m486 -45 c226 -56 408 -157 565 -315 214 -214 327 -474
342 -781 17 -369 -134 -713 -418 -949 -156 -130 -305 -203 -514 -251 -121 -28
-379 -26 -499 4 -468 117 -797 456 -898 927 -8 36 -13 127 -12 225 0 173 15
266 65 400 144 387 491 681 884 749 33 6 71 13 85 15 66 12 318 -3 400 -24z"/>
<path d="M976 2016 c4 -69 3 -115 -3 -119 -5 -3 -40 0 -78 8 -38 8 -71 12 -74
9 -14 -14 45 -189 109 -319 66 -135 78 -165 65 -165 -3 0 -40 24 -83 54 -121
84 -273 156 -333 156 -14 0 -16 -10 -15 -52 l1 -53 -65 -7 c-154 -18 -241 -32
-246 -40 -3 -4 38 -49 90 -99 53 -51 96 -97 96 -104 0 -7 -25 -23 -55 -35 -30
-12 -55 -26 -55 -30 0 -17 109 -107 166 -137 32 -17 106 -50 164 -73 58 -23
109 -46 114 -51 9 -8 -1 -14 -146 -74 -38 -15 -68 -33 -68 -40 0 -8 13 -23 30
-35 16 -12 30 -27 30 -33 0 -7 -30 -43 -65 -81 -36 -37 -63 -72 -60 -76 2 -3
50 -12 105 -20 72 -9 103 -17 107 -27 3 -9 -1 -38 -10 -66 -9 -28 -14 -53 -12
-56 11 -11 136 -1 225 17 134 27 226 76 322 170 91 88 92 87 86 -52 -3 -84 -8
-102 -41 -169 -20 -41 -37 -77 -37 -80 0 -6 122 17 138 27 9 5 12 53 12 172 0
200 3 204 89 112 75 -81 174 -132 292 -153 128 -23 122 -25 114 45 -5 46 -4
61 7 65 7 2 64 11 126 19 63 8 116 17 119 20 3 2 -22 39 -56 80 -34 41 -61 81
-61 89 0 7 21 28 46 46 44 32 45 34 28 52 -23 26 -91 55 -184 80 -41 11 -77
23 -80 26 -3 3 43 51 101 107 59 55 128 128 154 161 45 56 115 185 115 212 0
9 -18 13 -60 13 -39 0 -62 4 -65 13 -3 6 -11 65 -19 130 -8 65 -17 121 -20
124 -2 3 -41 -27 -85 -66 -45 -39 -88 -71 -96 -71 -8 0 -18 17 -25 43 -14 57
-28 87 -38 87 -19 0 -103 -83 -156 -155 -56 -73 -73 -91 -82 -83 -2 3 -11 42
-20 89 -31 167 -65 284 -105 359 -37 68 -84 130 -98 130 -3 0 -19 -23 -34 -51
-16 -28 -35 -53 -43 -56 -7 -3 -40 11 -72 31 -60 36 -186 96 -203 96 -6 0 -7
-44 -3 -114z m212 -54 c93 -71 83 -72 133 6 25 39 32 40 58 6 60 -76 111 -233
131 -400 6 -54 13 -105 15 -111 3 -7 54 36 115 97 61 61 117 110 124 110 8 0
21 -27 32 -70 10 -38 21 -70 25 -70 3 0 37 34 74 75 37 41 71 73 76 70 10 -7
-29 -98 -74 -173 -77 -129 -220 -303 -349 -426 -119 -114 -134 -125 -145 -110
-7 10 -13 34 -13 53 0 31 -26 249 -45 381 -29 196 -121 435 -219 568 -69 94
-66 93 62 -6z m-104 -1 c146 -193 229 -468 245 -815 4 -94 6 -177 3 -183 -7
-22 -27 -14 -98 40 -233 177 -483 326 -659 393 -38 14 -94 35 -123 46 -80 30
-66 40 56 38 59 -1 113 -2 120 -1 7 1 12 16 12 41 0 22 4 40 10 40 17 0 141
-49 202 -80 33 -17 94 -53 135 -81 41 -28 77 -49 79 -46 5 4 -11 43 -69 167
-53 114 -87 212 -93 267 l-7 56 39 -7 c120 -20 127 -20 121 0 -3 10 -11 46
-17 79 -6 33 -14 68 -16 78 -10 34 22 17 60 -32z m924 -403 c-4 -40 -9 -84
-10 -98 -3 -24 -1 -25 50 -22 48 3 52 2 52 -19 0 -55 -115 -206 -251 -330 -50
-45 -86 -86 -82 -90 5 -5 32 -13 61 -19 58 -11 149 -46 171 -66 12 -11 6 -18
-37 -45 -29 -18 -52 -35 -52 -38 0 -3 26 -30 58 -59 67 -62 63 -62 -96 -8 -97
33 -242 65 -377 83 -33 4 -60 13 -60 19 0 6 44 58 97 115 201 217 327 385 429
576 24 44 46 80 50 78 3 -2 2 -37 -3 -77z m-1508 -168 c175 -70 393 -191 527
-292 131 -98 283 -232 275 -240 -5 -5 -37 -13 -73 -19 -108 -17 -358 -77 -478
-114 -62 -19 -117 -35 -122 -35 -20 0 -6 17 36 43 25 16 45 34 45 41 0 7 -11
23 -25 36 -14 13 -25 27 -25 30 0 8 86 47 178 80 37 13 59 27 54 32 -5 5 -62
29 -127 54 -66 25 -140 56 -165 69 -56 28 -170 113 -170 126 0 6 25 21 55 34
30 14 55 29 55 34 0 6 -36 40 -79 77 -44 37 -78 71 -75 76 7 11 3 12 114 -32z
m1235 -635 c141 -26 267 -65 273 -83 3 -9 -23 -12 -93 -12 l-97 0 7 -55 c8
-69 1 -72 -92 -49 -87 21 -166 61 -224 113 -50 43 -92 105 -81 116 11 11 166
-4 307 -30z m-435 18 c0 -11 -53 -77 -89 -111 -50 -46 -110 -80 -189 -107 -67
-23 -241 -50 -251 -39 -3 3 2 26 11 52 10 25 15 49 12 52 -3 3 -39 7 -80 10
-41 3 -75 10 -75 15 -1 19 322 107 456 124 86 11 205 13 205 4z"/>
</g>
</svg>
